HIERARCHY
ROOT Hip
{
	OFFSET	0.0000	0.0000	0.0000
	CHANNELS 6 Xposition Yposition Zposition Xrotation Yrotation Zrotation
	JOINT LowerSpine
	{
		OFFSET	0.0000	8.3453	-5.1292
		CHANNELS 3 Xrotation Yrotation Zrotation
		JOINT MiddleSpine
		{
			OFFSET	10.8569	0.0000	0.0000
			CHANNELS 3 Xrotation Yrotation Zrotation
			JOINT Chest
			{
				OFFSET	15.2984	0.0000	0.0000
				CHANNELS 3 Xrotation Yrotation Zrotation
				JOINT Neck
				{
					OFFSET	25.6618	-0.5986	0.0000
					CHANNELS 3 Xrotation Yrotation Zrotation
					JOINT Head
					{
						OFFSET	8.8829	0.0000	0.0000
						CHANNELS 3 Xrotation Yrotation Zrotation
						End Site
						{
							OFFSET	19.7399	0.0000	0.0000
						}
					}
				}
				JOINT RClavicle
				{
					OFFSET	23.6878	0.0000	3.1584
					CHANNELS 3 Xrotation Yrotation Zrotation
					JOINT RShoulder
					{
						OFFSET	-15.5945	-3.9480	0.9870
						CHANNELS 3 Xrotation Yrotation Zrotation
						JOINT RForearm
						{
							OFFSET	-31.3370	0.0000	0.1974
							CHANNELS 3 Xrotation Yrotation Zrotation
							JOINT RHand
							{
								OFFSET	-26.4021	0.0000	0.0000
								CHANNELS 3 Xrotation Yrotation Zrotation
								End Site
								{
									OFFSET	-15.7919	-0.9870	0.0000
								}
							}
						}
					}
				}
				JOINT LClavicle
				{
					OFFSET	23.6878	0.0000	-3.1584
					CHANNELS 3 Xrotation Yrotation Zrotation
					JOINT LShoulder
					{
						OFFSET	-15.5945	-3.9480	-0.9870
						CHANNELS 3 Xrotation Yrotation Zrotation
						JOINT LForearm
						{
							OFFSET	-31.3370	0.0000	-0.1974
							CHANNELS 3 Xrotation Yrotation Zrotation
							JOINT LHand
							{
								OFFSET	-26.4021	0.0000	0.0000
								CHANNELS 3 Xrotation Yrotation Zrotation
								End Site
								{
									OFFSET	-15.7919	-0.9870	0.0000
								}
							}
						}
					}
				}
			}
		}
	}
	JOINT RThigh
	{
		OFFSET	-8.8829	0.4481	0.0000
		CHANNELS 3 Xrotation Yrotation Zrotation
		JOINT RShin
		{
			OFFSET	43.1316	0.0000	-0.4935
			CHANNELS 3 Xrotation Yrotation Zrotation
			JOINT RFoot
			{
				OFFSET	0.0000	-44.7256	-0.4047
				CHANNELS 3 Xrotation Yrotation Zrotation
				JOINT RToe
				{
					OFFSET	0.0000	-3.9332	12.1953
					CHANNELS 3 Xrotation Yrotation Zrotation
					End Site
					{
						OFFSET	6.7725	0.0000	0.0000
					}
				}
			}
		}
	}
	JOINT LThigh
	{
		OFFSET	8.8829	0.4481	0.0000
		CHANNELS 3 Xrotation Yrotation Zrotation
		JOINT LShin
		{
			OFFSET	43.1316	0.0000	0.4935
			CHANNELS 3 Xrotation Yrotation Zrotation
			JOINT LFoot
			{
				OFFSET	0.0000	-44.7256	0.4047
				CHANNELS 3 Xrotation Yrotation Zrotation
				JOINT LToe
				{
					OFFSET	0.0000	-3.9332	-12.1953
					CHANNELS 3 Xrotation Yrotation Zrotation
					End Site
					{
						OFFSET	6.7725	0.0000	0.0000
					}
				}
			}
		}
	}
}
MOTION
Frames:	10
Frame Time: 0.0169491000
	3.6005	98.7221	3.1810	4.783392	0.578894	0.877521	-89.999990	-90.000000	0.000000	-0.074398	-0.140463	-0.331008	-0.273533	-0.474748	-1.118365	0.000000	0.000000	0.000000	0.000000	0.000000	0.000000	90.021760	0.273155	-93.680020	22.522010	29.553360	72.236010	35.459220	80.024090	-36.129700	0.000000	0.000000	0.000000	-90.035800	-0.384104	-95.182250	6.200431	-25.101580	62.756530	-165.987100	-66.646560	-165.068000	0.000000	0.000000	0.000000	90.086830	82.695140	164.100800	89.776560	23.977890	90.022440	6.428452	-1.293514	-0.429816	177.746200	90.000000	0.000000	-115.280400	83.074920	11.326120	-89.846790	-16.837510	90.005220	-6.979000	-3.526199	1.148973	182.177400	-90.000000	0.000000
	3.8859	99.9039	2.9082	5.165852	-0.195580	1.424321	-89.999990	-90.000000	0.000000	-0.106452	-0.138427	-0.357823	-0.337444	-0.466566	-1.175386	0.000000	0.000000	0.000000	0.000000	0.000000	0.000000	90.029010	0.333721	-94.499310	23.861120	25.783330	74.416730	39.250210	80.831320	-39.868030	0.000000	0.000000	0.000000	-90.044020	-0.440542	-95.948410	9.719853	-26.814130	63.342350	-164.437500	-68.746260	-163.634100	0.000000	0.000000	0.000000	90.317610	81.890630	163.338500	89.786220	23.030330	90.019550	4.430267	-2.867293	-0.892065	179.678100	90.000000	0.000000	-117.174600	83.689540	13.011660	-89.854740	-15.996850	90.003820	-4.195050	-2.778311	0.862310	180.390600	-90.000000	0.000000
	4.0043	100.6158	2.5939	5.606847	-0.999767	1.703135	-89.999990	-90.000000	0.000000	-0.134227	-0.161367	-0.375678	-0.447428	-0.538092	-1.249573	0.000000	0.000000	0.000000	0.000000	0.000000	0.000000	90.036930	0.392820	-95.300160	25.514980	21.994680	76.029630	46.359570	81.958330	-46.897900	0.000000	0.000000	0.000000	-90.050040	-0.478757	-96.468010	12.125290	-28.173670	63.509210	-162.968600	-70.416890	-162.257400	0.000000	0.000000	0.000000	90.581940	81.519230	162.474400	89.793480	22.311370	90.017490	3.125603	-3.092508	-0.966929	180.000000	90.000000	0.000000	-118.606400	83.930270	13.905790	-89.855690	-15.895110	90.003660	-2.983752	-1.833567	0.555014	180.000000	-90.000000	0.000000
	4.0154	100.9537	2.3620	5.958140	-1.531995	1.763155	-89.999990	-90.000000	0.000000	-0.175410	-0.208348	-0.398391	-0.590363	-0.690193	-1.330368	0.000000	0.000000	0.000000	0.000000	0.000000	0.000000	90.044780	0.445965	-96.021760	27.315750	18.295410	77.277140	53.509700	82.745440	-53.984760	0.000000	0.000000	0.000000	-90.052930	-0.496335	-96.707310	13.457710	-29.473570	63.158020	-161.604100	-71.747800	-160.966400	0.000000	0.000000	0.000000	90.031540	81.491230	162.531600	89.797620	21.897940	90.016370	2.547011	-3.106448	-0.957173	180.000000	90.000000	0.000000	-119.390800	83.899960	14.087140	-89.852770	-16.206340	90.004150	-2.831833	-1.426536	0.439886	180.000200	-90.000000	0.000000
	4.0202	101.0891	2.2359	6.160937	-1.748360	1.716303	-89.999990	-90.000000	0.000000	-0.223588	-0.271777	-0.419959	-0.753070	-0.899532	-1.404035	0.000000	0.000000	0.000000	0.000000	0.000000	0.000000	90.051590	0.488744	-96.603600	29.004400	15.020770	78.595760	55.889790	82.951640	-56.346340	0.000000	0.000000	0.000000	-90.052800	-0.495555	-96.696630	14.301410	-30.292640	62.923930	-160.609800	-72.606880	-160.019800	0.000000	0.000000	0.000000	85.896620	81.627230	166.226200	89.797330	21.927850	90.016440	2.279652	-2.959745	-0.888973	180.000000	90.000000	0.000000	-119.890700	83.797200	14.159960	-89.849740	-16.526570	90.004680	-2.660607	-1.271831	0.404326	180.000000	-90.000000	0.000000
	4.0645	101.1172	2.1543	6.294647	-1.905291	1.681884	-89.999990	-90.000000	0.000000	-0.276152	-0.341031	-0.436095	-0.930656	-1.128539	-1.460125	0.000000	0.000000	0.000000	0.000000	0.000000	0.000000	90.056640	0.518748	-97.012270	30.295710	12.382530	79.881200	55.770890	82.941930	-56.228340	0.000000	0.000000	0.000000	-90.050700	-0.482812	-96.523220	14.736800	-30.440690	62.938210	-160.173700	-72.958000	-159.603200	0.000000	0.000000	0.000000	78.604910	81.662250	173.058600	89.794620	22.198460	90.017180	2.150664	-2.382698	-0.701526	180.000000	90.000000	0.000000	-120.466200	83.745640	14.544090	-89.849240	-16.579490	90.004770	-2.413642	-1.132158	0.367025	180.000000	-90.000000	0.000000
	4.1118	101.0504	2.1003	6.375126	-2.204870	1.694426	-89.999990	-90.000000	0.000000	-0.334944	-0.405128	-0.445729	-1.128831	-1.340190	-1.495101	0.000000	0.000000	0.000000	0.000000	0.000000	0.000000	90.059720	0.536482	-97.254070	30.955520	10.424280	80.779920	55.839500	82.947510	-56.296420	0.000000	0.000000	0.000000	-90.047980	-0.465936	-96.293590	14.676290	-30.158880	62.804230	-160.222400	-72.919500	-159.649800	0.000000	0.000000	0.000000	73.376340	81.586170	177.965200	89.792810	22.378100	90.017680	1.932436	-1.770188	-0.526914	180.000000	90.000000	0.000000	-121.043400	83.719640	15.123630	-89.850110	-16.488440	90.004620	-2.129067	-1.028193	0.320296	180.000000	-90.000000	0.000000
	4.1460	100.8526	2.0636	6.414876	-2.748999	1.732543	-89.999990	-90.000000	0.000000	-0.403645	-0.456260	-0.449713	-1.359551	-1.508389	-1.511709	0.000000	0.000000	0.000000	0.000000	0.000000	0.000000	90.061110	0.544327	-97.361090	31.138420	9.319551	80.964930	56.247500	82.980620	-56.701360	0.000000	0.000000	0.000000	-90.045620	-0.450906	-96.089230	14.451790	-29.330550	62.612270	-160.685500	-72.544430	-160.092000	0.000000	0.000000	0.000000	72.491320	81.596310	178.749400	89.793790	22.280780	90.017400	1.523604	-1.323908	-0.411294	179.987500	90.000000	0.000000	-121.557400	83.686190	15.690810	-89.849370	-16.567440	90.004750	-1.745176	-0.709484	0.200301	180.000000	-90.000000	0.000000
	4.2376	100.4619	1.9842	6.546698	-3.798962	1.848390	-89.999990	-90.000000	0.000000	-0.484513	-0.490570	-0.450185	-1.630231	-1.620206	-1.516933	0.000000	0.000000	0.000000	0.000000	0.000000	0.000000	90.061440	0.546148	-97.385930	31.145710	9.066810	80.238930	58.780800	83.171810	-59.216190	0.000000	0.000000	0.000000	-90.043890	-0.439712	-95.937110	14.194990	-27.740570	62.703250	-161.375400	-71.952970	-160.749200	0.000000	0.000000	0.000000	73.666990	81.641960	177.469700	89.797940	21.866920	90.016270	1.232569	-0.628783	-0.195829	179.949900	90.000000	0.000000	-122.286800	83.700240	16.353240	-89.845780	-16.945060	90.005390	-1.486384	0.152486	-0.071863	180.000000	-90.000000	0.000000
	4.4316	99.7985	1.8848	6.775462	-5.201834	2.114102	-89.999990	-90.000000	0.000000	-0.574563	-0.507569	-0.450673	-1.930990	-1.674008	-1.522218	0.000000	0.000000	0.000000	0.000000	0.000000	0.000000	90.060090	0.538550	-97.282260	31.244090	8.822529	79.105980	64.897190	83.544270	-65.291640	0.000000	0.000000	0.000000	-90.042390	-0.429767	-95.802010	13.796940	-26.113000	63.058180	-161.606600	-71.745540	-160.968800	0.000000	0.000000	0.000000	74.623840	81.553800	176.261900	89.801730	21.486980	90.015270	1.380253	0.461910	0.155975	179.924800	90.000000	0.000000	-123.897300	83.828770	17.678880	-89.837950	-17.766080	90.006900	-1.889779	0.977601	-0.317046	180.000000	-90.000000	0.000000
